<mxfile host="app.diagrams.net" modified="2021-10-07T22:26:35.618Z" agent="5.0 (Macintosh; Intel Mac OS X 10_15_7) AppleWebKit/537.36 (KHTML, like Gecko) Chrome/94.0.4606.71 Safari/537.36" etag="dLHg5lRHrHo5iNF2WDW4" version="15.3.7" type="github" pages="2">
  <diagram id="yBUKa3N6ODurLHpnwnWa" name="Page-1">
    <mxGraphModel dx="1155" dy="661" grid="1" gridSize="10" guides="1" tooltips="1" connect="1" arrows="1" fold="1" page="1" pageScale="1" pageWidth="1100" pageHeight="850" math="0" shadow="0">
      <root>
        <mxCell id="0" />
        <mxCell id="1" parent="0" />
        <mxCell id="ZCX1qqD5gtby1FbysgLQ-123" value="CDN Control Plane" style="rounded=0;whiteSpace=wrap;html=1;dashed=1;verticalAlign=top;fillColor=#fff2cc;strokeColor=#d6b656;align=left;" vertex="1" parent="1">
          <mxGeometry x="310" y="40" width="480" height="120" as="geometry" />
        </mxCell>
        <mxCell id="ZCX1qqD5gtby1FbysgLQ-109" value="CDN Data Plane" style="rounded=0;whiteSpace=wrap;html=1;dashed=1;align=left;verticalAlign=top;fillColor=#d5e8d4;strokeColor=#82b366;" vertex="1" parent="1">
          <mxGeometry x="310" y="200" width="480" height="380" as="geometry" />
        </mxCell>
        <mxCell id="ZCX1qqD5gtby1FbysgLQ-86" style="edgeStyle=orthogonalEdgeStyle;rounded=0;orthogonalLoop=1;jettySize=auto;html=1;exitX=1;exitY=0.5;exitDx=0;exitDy=0;entryX=0;entryY=0.5;entryDx=0;entryDy=0;endArrow=none;endFill=0;strokeWidth=1;" edge="1" parent="1" source="ZCX1qqD5gtby1FbysgLQ-24" target="ZCX1qqD5gtby1FbysgLQ-25">
          <mxGeometry relative="1" as="geometry" />
        </mxCell>
        <mxCell id="ZCX1qqD5gtby1FbysgLQ-87" style="edgeStyle=orthogonalEdgeStyle;rounded=0;orthogonalLoop=1;jettySize=auto;html=1;exitX=1;exitY=0.5;exitDx=0;exitDy=0;entryX=0;entryY=0.5;entryDx=0;entryDy=0;endArrow=none;endFill=0;strokeWidth=1;" edge="1" parent="1" source="ZCX1qqD5gtby1FbysgLQ-24" target="ZCX1qqD5gtby1FbysgLQ-71">
          <mxGeometry relative="1" as="geometry" />
        </mxCell>
        <mxCell id="ZCX1qqD5gtby1FbysgLQ-24" value="content origin" style="rounded=1;whiteSpace=wrap;html=1;" vertex="1" parent="1">
          <mxGeometry x="210" y="300" width="90" height="30" as="geometry" />
        </mxCell>
        <mxCell id="ZCX1qqD5gtby1FbysgLQ-75" style="edgeStyle=orthogonalEdgeStyle;rounded=0;orthogonalLoop=1;jettySize=auto;html=1;exitX=1;exitY=0.5;exitDx=0;exitDy=0;entryX=0;entryY=0.5;entryDx=0;entryDy=0;endArrow=none;endFill=0;strokeWidth=1;" edge="1" parent="1" source="ZCX1qqD5gtby1FbysgLQ-25" target="ZCX1qqD5gtby1FbysgLQ-72">
          <mxGeometry relative="1" as="geometry" />
        </mxCell>
        <mxCell id="ZCX1qqD5gtby1FbysgLQ-76" style="edgeStyle=orthogonalEdgeStyle;rounded=0;orthogonalLoop=1;jettySize=auto;html=1;exitX=1;exitY=0.5;exitDx=0;exitDy=0;entryX=0.003;entryY=0.595;entryDx=0;entryDy=0;entryPerimeter=0;endArrow=none;endFill=0;strokeWidth=1;" edge="1" parent="1" source="ZCX1qqD5gtby1FbysgLQ-25" target="ZCX1qqD5gtby1FbysgLQ-74">
          <mxGeometry relative="1" as="geometry" />
        </mxCell>
        <mxCell id="ZCX1qqD5gtby1FbysgLQ-25" value="cdn (mid)" style="whiteSpace=wrap;html=1;rounded=1;fillColor=#dae8fc;strokeColor=#6c8ebf;" vertex="1" parent="1">
          <mxGeometry x="370" y="280" width="130" height="70" as="geometry" />
        </mxCell>
        <mxCell id="ZCX1qqD5gtby1FbysgLQ-136" style="edgeStyle=orthogonalEdgeStyle;rounded=0;orthogonalLoop=1;jettySize=auto;html=1;exitX=0.25;exitY=0;exitDx=0;exitDy=0;entryX=0.994;entryY=0.552;entryDx=0;entryDy=0;entryPerimeter=0;endArrow=classic;endFill=1;strokeWidth=1;" edge="1" parent="1" source="ZCX1qqD5gtby1FbysgLQ-31" target="ZCX1qqD5gtby1FbysgLQ-119">
          <mxGeometry relative="1" as="geometry" />
        </mxCell>
        <mxCell id="ZCX1qqD5gtby1FbysgLQ-138" value="Service Domain Resolution" style="edgeLabel;html=1;align=center;verticalAlign=middle;resizable=0;points=[];rotation=270;" vertex="1" connectable="0" parent="ZCX1qqD5gtby1FbysgLQ-136">
          <mxGeometry x="0.7915" y="-1" relative="1" as="geometry">
            <mxPoint x="11" y="84" as="offset" />
          </mxGeometry>
        </mxCell>
        <mxCell id="ZCX1qqD5gtby1FbysgLQ-137" style="edgeStyle=orthogonalEdgeStyle;rounded=0;orthogonalLoop=1;jettySize=auto;html=1;exitX=0.75;exitY=0;exitDx=0;exitDy=0;entryX=0.5;entryY=1;entryDx=0;entryDy=0;endArrow=classic;endFill=1;strokeWidth=1;" edge="1" parent="1" source="ZCX1qqD5gtby1FbysgLQ-31" target="ZCX1qqD5gtby1FbysgLQ-118">
          <mxGeometry relative="1" as="geometry" />
        </mxCell>
        <mxCell id="ZCX1qqD5gtby1FbysgLQ-139" value="Http Content Routing" style="edgeLabel;html=1;align=center;verticalAlign=middle;resizable=0;points=[];rotation=270;" vertex="1" connectable="0" parent="ZCX1qqD5gtby1FbysgLQ-137">
          <mxGeometry x="-0.0518" y="1" relative="1" as="geometry">
            <mxPoint x="8" y="30" as="offset" />
          </mxGeometry>
        </mxCell>
        <mxCell id="ZCX1qqD5gtby1FbysgLQ-31" value="player" style="whiteSpace=wrap;html=1;rounded=1;" vertex="1" parent="1">
          <mxGeometry x="800" y="305" width="70" height="20" as="geometry" />
        </mxCell>
        <mxCell id="ZCX1qqD5gtby1FbysgLQ-68" value="player" style="whiteSpace=wrap;html=1;rounded=1;" vertex="1" parent="1">
          <mxGeometry x="800" y="465" width="70" height="20" as="geometry" />
        </mxCell>
        <mxCell id="ZCX1qqD5gtby1FbysgLQ-88" style="edgeStyle=orthogonalEdgeStyle;rounded=0;orthogonalLoop=1;jettySize=auto;html=1;exitX=1;exitY=0.5;exitDx=0;exitDy=0;entryX=0;entryY=0.5;entryDx=0;entryDy=0;endArrow=none;endFill=0;strokeWidth=1;" edge="1" parent="1" source="ZCX1qqD5gtby1FbysgLQ-70" target="ZCX1qqD5gtby1FbysgLQ-25">
          <mxGeometry relative="1" as="geometry" />
        </mxCell>
        <mxCell id="ZCX1qqD5gtby1FbysgLQ-90" style="edgeStyle=orthogonalEdgeStyle;rounded=0;orthogonalLoop=1;jettySize=auto;html=1;exitX=1;exitY=0.5;exitDx=0;exitDy=0;entryX=0;entryY=0.5;entryDx=0;entryDy=0;endArrow=none;endFill=0;strokeWidth=1;" edge="1" parent="1" source="ZCX1qqD5gtby1FbysgLQ-70" target="ZCX1qqD5gtby1FbysgLQ-71">
          <mxGeometry relative="1" as="geometry" />
        </mxCell>
        <mxCell id="ZCX1qqD5gtby1FbysgLQ-70" value="content origin" style="rounded=1;whiteSpace=wrap;html=1;" vertex="1" parent="1">
          <mxGeometry x="210" y="460" width="90" height="30" as="geometry" />
        </mxCell>
        <mxCell id="ZCX1qqD5gtby1FbysgLQ-79" style="edgeStyle=orthogonalEdgeStyle;rounded=0;orthogonalLoop=1;jettySize=auto;html=1;exitX=1;exitY=0.5;exitDx=0;exitDy=0;entryX=0;entryY=0.5;entryDx=0;entryDy=0;endArrow=none;endFill=0;strokeWidth=1;" edge="1" parent="1" source="ZCX1qqD5gtby1FbysgLQ-71" target="ZCX1qqD5gtby1FbysgLQ-77">
          <mxGeometry relative="1" as="geometry" />
        </mxCell>
        <mxCell id="ZCX1qqD5gtby1FbysgLQ-80" style="edgeStyle=orthogonalEdgeStyle;rounded=0;orthogonalLoop=1;jettySize=auto;html=1;exitX=1;exitY=0.5;exitDx=0;exitDy=0;entryX=0;entryY=0.5;entryDx=0;entryDy=0;endArrow=none;endFill=0;strokeWidth=1;" edge="1" parent="1" source="ZCX1qqD5gtby1FbysgLQ-71" target="ZCX1qqD5gtby1FbysgLQ-78">
          <mxGeometry relative="1" as="geometry" />
        </mxCell>
        <mxCell id="ZCX1qqD5gtby1FbysgLQ-71" value="cdn (mid)" style="whiteSpace=wrap;html=1;rounded=1;fillColor=#dae8fc;strokeColor=#6c8ebf;" vertex="1" parent="1">
          <mxGeometry x="370" y="440" width="130" height="70" as="geometry" />
        </mxCell>
        <mxCell id="ZCX1qqD5gtby1FbysgLQ-82" style="edgeStyle=orthogonalEdgeStyle;rounded=0;orthogonalLoop=1;jettySize=auto;html=1;exitX=1;exitY=0.5;exitDx=0;exitDy=0;entryX=0;entryY=0.5;entryDx=0;entryDy=0;endArrow=none;endFill=0;strokeWidth=1;" edge="1" parent="1" source="ZCX1qqD5gtby1FbysgLQ-72" target="ZCX1qqD5gtby1FbysgLQ-31">
          <mxGeometry relative="1" as="geometry" />
        </mxCell>
        <mxCell id="ZCX1qqD5gtby1FbysgLQ-72" value="cdn (edge)" style="whiteSpace=wrap;html=1;rounded=1;fillColor=#dae8fc;strokeColor=#6c8ebf;" vertex="1" parent="1">
          <mxGeometry x="590" y="240" width="130" height="70" as="geometry" />
        </mxCell>
        <mxCell id="ZCX1qqD5gtby1FbysgLQ-83" style="edgeStyle=orthogonalEdgeStyle;rounded=0;orthogonalLoop=1;jettySize=auto;html=1;exitX=1;exitY=0.5;exitDx=0;exitDy=0;entryX=0;entryY=0.5;entryDx=0;entryDy=0;endArrow=none;endFill=0;strokeWidth=1;" edge="1" parent="1" source="ZCX1qqD5gtby1FbysgLQ-74" target="ZCX1qqD5gtby1FbysgLQ-31">
          <mxGeometry relative="1" as="geometry" />
        </mxCell>
        <mxCell id="ZCX1qqD5gtby1FbysgLQ-74" value="cdn (edge)" style="whiteSpace=wrap;html=1;rounded=1;fillColor=#dae8fc;strokeColor=#6c8ebf;" vertex="1" parent="1">
          <mxGeometry x="590" y="320" width="130" height="70" as="geometry" />
        </mxCell>
        <mxCell id="ZCX1qqD5gtby1FbysgLQ-84" style="edgeStyle=orthogonalEdgeStyle;rounded=0;orthogonalLoop=1;jettySize=auto;html=1;exitX=1;exitY=0.5;exitDx=0;exitDy=0;entryX=0;entryY=0.5;entryDx=0;entryDy=0;endArrow=none;endFill=0;strokeWidth=1;" edge="1" parent="1" source="ZCX1qqD5gtby1FbysgLQ-77" target="ZCX1qqD5gtby1FbysgLQ-68">
          <mxGeometry relative="1" as="geometry" />
        </mxCell>
        <mxCell id="ZCX1qqD5gtby1FbysgLQ-77" value="cdn (edge)" style="whiteSpace=wrap;html=1;rounded=1;fillColor=#dae8fc;strokeColor=#6c8ebf;" vertex="1" parent="1">
          <mxGeometry x="590" y="400" width="130" height="70" as="geometry" />
        </mxCell>
        <mxCell id="ZCX1qqD5gtby1FbysgLQ-85" style="edgeStyle=orthogonalEdgeStyle;rounded=0;orthogonalLoop=1;jettySize=auto;html=1;exitX=1;exitY=0.5;exitDx=0;exitDy=0;entryX=0;entryY=0.5;entryDx=0;entryDy=0;endArrow=none;endFill=0;strokeWidth=1;" edge="1" parent="1" source="ZCX1qqD5gtby1FbysgLQ-78" target="ZCX1qqD5gtby1FbysgLQ-68">
          <mxGeometry relative="1" as="geometry" />
        </mxCell>
        <mxCell id="ZCX1qqD5gtby1FbysgLQ-78" value="cdn (edge)" style="whiteSpace=wrap;html=1;rounded=1;fillColor=#dae8fc;strokeColor=#6c8ebf;" vertex="1" parent="1">
          <mxGeometry x="590" y="480" width="130" height="70" as="geometry" />
        </mxCell>
        <mxCell id="ZCX1qqD5gtby1FbysgLQ-91" value="" style="sketch=0;points=[[0,0,0],[0.25,0,0],[0.5,0,0],[0.75,0,0],[1,0,0],[0,1,0],[0.25,1,0],[0.5,1,0],[0.75,1,0],[1,1,0],[0,0.25,0],[0,0.5,0],[0,0.75,0],[1,0.25,0],[1,0.5,0],[1,0.75,0]];outlineConnect=0;fontColor=#232F3E;gradientColor=#F78E04;gradientDirection=north;fillColor=#D05C17;strokeColor=#ffffff;dashed=0;verticalLabelPosition=bottom;verticalAlign=top;align=center;html=1;fontSize=12;fontStyle=0;aspect=fixed;shape=mxgraph.aws4.resourceIcon;resIcon=mxgraph.aws4.elemental_mediaconvert;" vertex="1" parent="1">
          <mxGeometry x="192" y="306" width="18" height="18" as="geometry" />
        </mxCell>
        <mxCell id="ZCX1qqD5gtby1FbysgLQ-92" value="" style="sketch=0;points=[[0,0,0],[0.25,0,0],[0.5,0,0],[0.75,0,0],[1,0,0],[0,1,0],[0.25,1,0],[0.5,1,0],[0.75,1,0],[1,1,0],[0,0.25,0],[0,0.5,0],[0,0.75,0],[1,0.25,0],[1,0.5,0],[1,0.75,0]];outlineConnect=0;fontColor=#232F3E;gradientColor=#F78E04;gradientDirection=north;fillColor=#D05C17;strokeColor=#ffffff;dashed=0;verticalLabelPosition=bottom;verticalAlign=top;align=center;html=1;fontSize=12;fontStyle=0;aspect=fixed;shape=mxgraph.aws4.resourceIcon;resIcon=mxgraph.aws4.elemental_mediaconvert;" vertex="1" parent="1">
          <mxGeometry x="192" y="466" width="18" height="18" as="geometry" />
        </mxCell>
        <mxCell id="ZCX1qqD5gtby1FbysgLQ-93" value="" style="sketch=0;html=1;fillColor=#5184F3;strokeColor=none;verticalAlign=top;labelPosition=center;verticalLabelPosition=bottom;align=center;spacingTop=-6;fontSize=11;fontStyle=1;fontColor=#999999;shape=mxgraph.gcp2.hexIcon;prIcon=cloud_cdn" vertex="1" parent="1">
          <mxGeometry x="450" y="271.5" width="60" height="48.5" as="geometry" />
        </mxCell>
        <mxCell id="ZCX1qqD5gtby1FbysgLQ-97" value="" style="sketch=0;html=1;fillColor=#5184F3;strokeColor=none;verticalAlign=top;labelPosition=center;verticalLabelPosition=bottom;align=center;spacingTop=-6;fontSize=11;fontStyle=1;fontColor=#999999;shape=mxgraph.gcp2.hexIcon;prIcon=cloud_cdn" vertex="1" parent="1">
          <mxGeometry x="450" y="431.5" width="60" height="48.5" as="geometry" />
        </mxCell>
        <mxCell id="ZCX1qqD5gtby1FbysgLQ-98" value="" style="sketch=0;html=1;fillColor=#5184F3;strokeColor=none;verticalAlign=top;labelPosition=center;verticalLabelPosition=bottom;align=center;spacingTop=-6;fontSize=11;fontStyle=1;fontColor=#999999;shape=mxgraph.gcp2.hexIcon;prIcon=cloud_cdn" vertex="1" parent="1">
          <mxGeometry x="670" y="231.5" width="60" height="48.5" as="geometry" />
        </mxCell>
        <mxCell id="ZCX1qqD5gtby1FbysgLQ-99" value="" style="sketch=0;html=1;fillColor=#5184F3;strokeColor=none;verticalAlign=top;labelPosition=center;verticalLabelPosition=bottom;align=center;spacingTop=-6;fontSize=11;fontStyle=1;fontColor=#999999;shape=mxgraph.gcp2.hexIcon;prIcon=cloud_cdn" vertex="1" parent="1">
          <mxGeometry x="670" y="312" width="60" height="48.5" as="geometry" />
        </mxCell>
        <mxCell id="ZCX1qqD5gtby1FbysgLQ-100" value="" style="sketch=0;html=1;fillColor=#5184F3;strokeColor=none;verticalAlign=top;labelPosition=center;verticalLabelPosition=bottom;align=center;spacingTop=-6;fontSize=11;fontStyle=1;fontColor=#999999;shape=mxgraph.gcp2.hexIcon;prIcon=cloud_cdn" vertex="1" parent="1">
          <mxGeometry x="670" y="391.5" width="60" height="48.5" as="geometry" />
        </mxCell>
        <mxCell id="ZCX1qqD5gtby1FbysgLQ-101" value="" style="sketch=0;html=1;fillColor=#5184F3;strokeColor=none;verticalAlign=top;labelPosition=center;verticalLabelPosition=bottom;align=center;spacingTop=-6;fontSize=11;fontStyle=1;fontColor=#999999;shape=mxgraph.gcp2.hexIcon;prIcon=cloud_cdn" vertex="1" parent="1">
          <mxGeometry x="670" y="472" width="60" height="48.5" as="geometry" />
        </mxCell>
        <mxCell id="ZCX1qqD5gtby1FbysgLQ-103" value="" style="shape=image;html=1;verticalAlign=top;verticalLabelPosition=bottom;labelBackgroundColor=#ffffff;imageAspect=0;aspect=fixed;image=https://cdn0.iconfinder.com/data/icons/significon-social/512/Significon-YouTube-128.png" vertex="1" parent="1">
          <mxGeometry x="870" y="301" width="28" height="28" as="geometry" />
        </mxCell>
        <mxCell id="ZCX1qqD5gtby1FbysgLQ-104" value="" style="shape=image;html=1;verticalAlign=top;verticalLabelPosition=bottom;labelBackgroundColor=#ffffff;imageAspect=0;aspect=fixed;image=https://cdn0.iconfinder.com/data/icons/significon-social/512/Significon-YouTube-128.png" vertex="1" parent="1">
          <mxGeometry x="870" y="461" width="28" height="28" as="geometry" />
        </mxCell>
        <mxCell id="ZCX1qqD5gtby1FbysgLQ-105" value="Traffic Monitor" style="rounded=1;whiteSpace=wrap;html=1;fillColor=#e1d5e7;strokeColor=#9673a6;" vertex="1" parent="1">
          <mxGeometry x="331.5" y="81" width="120" height="60" as="geometry" />
        </mxCell>
        <mxCell id="ZCX1qqD5gtby1FbysgLQ-107" value="Routing&amp;nbsp;&lt;br&gt;DNS" style="rounded=1;whiteSpace=wrap;html=1;fillColor=#e1d5e7;strokeColor=#9673a6;" vertex="1" parent="1">
          <mxGeometry x="657.5" y="81" width="120" height="60" as="geometry" />
        </mxCell>
        <mxCell id="ZCX1qqD5gtby1FbysgLQ-110" value="Configuration" style="rounded=1;whiteSpace=wrap;html=1;fillColor=#e1d5e7;strokeColor=#9673a6;" vertex="1" parent="1">
          <mxGeometry x="489.5" y="81" width="120" height="60" as="geometry" />
        </mxCell>
        <mxCell id="ZCX1qqD5gtby1FbysgLQ-112" value="" style="aspect=fixed;html=1;points=[];align=center;image;fontSize=12;image=img/lib/azure2/management_governance/Monitor.svg;dashed=1;" vertex="1" parent="1">
          <mxGeometry x="429.5" y="81" width="30" height="30" as="geometry" />
        </mxCell>
        <mxCell id="ZCX1qqD5gtby1FbysgLQ-117" value="" style="verticalLabelPosition=bottom;html=1;verticalAlign=top;align=center;strokeColor=none;fillColor=#00BEF2;shape=mxgraph.azure.cloud_services_configuration_file;pointerEvents=1;dashed=1;" vertex="1" parent="1">
          <mxGeometry x="581" y="81" width="28.5" height="19" as="geometry" />
        </mxCell>
        <mxCell id="ZCX1qqD5gtby1FbysgLQ-118" value="" style="aspect=fixed;perimeter=ellipsePerimeter;html=1;align=center;shadow=0;dashed=0;fontColor=#4277BB;labelBackgroundColor=#ffffff;fontSize=12;spacingTop=3;image;image=img/lib/ibm/infrastructure/load_balancing_routing.svg;direction=north;" vertex="1" parent="1">
          <mxGeometry x="747.5" y="81" width="30" height="30" as="geometry" />
        </mxCell>
        <mxCell id="ZCX1qqD5gtby1FbysgLQ-119" value="" style="aspect=fixed;html=1;points=[];align=center;image;fontSize=12;image=img/lib/azure2/networking/DNS_Zones.svg;dashed=1;" vertex="1" parent="1">
          <mxGeometry x="747.5" y="111" width="29" height="29" as="geometry" />
        </mxCell>
        <mxCell id="ZCX1qqD5gtby1FbysgLQ-120" value="Analytics" style="rounded=1;whiteSpace=wrap;html=1;fillColor=#e1d5e7;strokeColor=#9673a6;" vertex="1" parent="1">
          <mxGeometry x="429" y="630" width="220" height="60" as="geometry" />
        </mxCell>
        <mxCell id="ZCX1qqD5gtby1FbysgLQ-122" value="" style="sketch=0;points=[[0,0,0],[0.25,0,0],[0.5,0,0],[0.75,0,0],[1,0,0],[0,1,0],[0.25,1,0],[0.5,1,0],[0.75,1,0],[1,1,0],[0,0.25,0],[0,0.5,0],[0,0.75,0],[1,0.25,0],[1,0.5,0],[1,0.75,0]];outlineConnect=0;fontColor=#232F3E;gradientColor=#945DF2;gradientDirection=north;fillColor=#5A30B5;strokeColor=#ffffff;dashed=0;verticalLabelPosition=bottom;verticalAlign=top;align=center;html=1;fontSize=12;fontStyle=0;aspect=fixed;shape=mxgraph.aws4.resourceIcon;resIcon=mxgraph.aws4.elasticsearch_service;" vertex="1" parent="1">
          <mxGeometry x="618.5" y="640" width="22" height="22" as="geometry" />
        </mxCell>
        <mxCell id="ZCX1qqD5gtby1FbysgLQ-125" value="Traffic Stats" style="endArrow=classic;html=1;strokeWidth=1;exitX=0.17;exitY=-0.001;exitDx=0;exitDy=0;entryX=0.5;entryY=1;entryDx=0;entryDy=0;exitPerimeter=0;" edge="1" parent="1" source="ZCX1qqD5gtby1FbysgLQ-109" target="ZCX1qqD5gtby1FbysgLQ-105">
          <mxGeometry width="50" height="50" relative="1" as="geometry">
            <mxPoint x="230" y="210" as="sourcePoint" />
            <mxPoint x="280" y="160" as="targetPoint" />
          </mxGeometry>
        </mxCell>
        <mxCell id="ZCX1qqD5gtby1FbysgLQ-127" value="Topology &amp;amp; Service Definition" style="endArrow=classic;html=1;strokeWidth=1;exitX=0.5;exitY=1;exitDx=0;exitDy=0;entryX=0.5;entryY=0;entryDx=0;entryDy=0;" edge="1" parent="1" source="ZCX1qqD5gtby1FbysgLQ-110" target="ZCX1qqD5gtby1FbysgLQ-109">
          <mxGeometry width="50" height="50" relative="1" as="geometry">
            <mxPoint x="170" y="210" as="sourcePoint" />
            <mxPoint x="559" y="200" as="targetPoint" />
          </mxGeometry>
        </mxCell>
        <mxCell id="ZCX1qqD5gtby1FbysgLQ-129" value="HTTP Redirect" style="endArrow=classic;html=1;strokeWidth=1;exitX=0.5;exitY=1;exitDx=0;exitDy=0;entryX=0.849;entryY=0;entryDx=0;entryDy=0;entryPerimeter=0;" edge="1" parent="1" source="ZCX1qqD5gtby1FbysgLQ-107" target="ZCX1qqD5gtby1FbysgLQ-109">
          <mxGeometry width="50" height="50" relative="1" as="geometry">
            <mxPoint x="688" y="160" as="sourcePoint" />
            <mxPoint x="688" y="200" as="targetPoint" />
          </mxGeometry>
        </mxCell>
        <mxCell id="ZCX1qqD5gtby1FbysgLQ-133" value="Delivery logs" style="endArrow=classic;html=1;strokeWidth=1;exitX=0.478;exitY=1.004;exitDx=0;exitDy=0;entryX=0.5;entryY=0;entryDx=0;entryDy=0;exitPerimeter=0;" edge="1" parent="1" source="ZCX1qqD5gtby1FbysgLQ-109" target="ZCX1qqD5gtby1FbysgLQ-120">
          <mxGeometry width="50" height="50" relative="1" as="geometry">
            <mxPoint x="540" y="630" as="sourcePoint" />
            <mxPoint x="590" y="580" as="targetPoint" />
          </mxGeometry>
        </mxCell>
      </root>
    </mxGraphModel>
  </diagram>
  <diagram id="3ecSuqMmrtRNR169ro-S" name="Page-2">
    <mxGraphModel dx="1791" dy="1094" grid="1" gridSize="10" guides="1" tooltips="1" connect="1" arrows="1" fold="1" page="1" pageScale="1" pageWidth="1100" pageHeight="850" math="0" shadow="0">
      <root>
        <mxCell id="vk6qnS6NGIDS7BdwkZoj-0" />
        <mxCell id="vk6qnS6NGIDS7BdwkZoj-1" parent="vk6qnS6NGIDS7BdwkZoj-0" />
        <mxCell id="vk6qnS6NGIDS7BdwkZoj-190" value="Kubertnetes Cluster Worker Node" style="rounded=1;html=1;sketch=0;horizontal=0;labelPosition=center;verticalLabelPosition=middle;align=center;verticalAlign=top;labelBackgroundColor=none;labelBorderColor=none;spacingTop=12;" vertex="1" parent="vk6qnS6NGIDS7BdwkZoj-1">
          <mxGeometry x="20" y="15" width="840" height="820" as="geometry" />
        </mxCell>
        <mxCell id="vk6qnS6NGIDS7BdwkZoj-193" value="&lt;span&gt;volume (hostpath/local)&lt;/span&gt;" style="rounded=1;whiteSpace=wrap;html=1;dashed=1;align=center;verticalAlign=top;fillColor=#dae8fc;labelPosition=center;verticalLabelPosition=bottom;strokeColor=#6c8ebf;" vertex="1" parent="vk6qnS6NGIDS7BdwkZoj-1">
          <mxGeometry x="370" y="663" width="120" height="122" as="geometry" />
        </mxCell>
        <mxCell id="vk6qnS6NGIDS7BdwkZoj-148" value="ram disk based block storage" style="rounded=1;whiteSpace=wrap;html=1;dashed=1;align=center;verticalAlign=top;fillColor=#dae8fc;labelPosition=center;verticalLabelPosition=bottom;strokeColor=#6c8ebf;" vertex="1" parent="vk6qnS6NGIDS7BdwkZoj-1">
          <mxGeometry x="677" y="664" width="120" height="122" as="geometry" />
        </mxCell>
        <mxCell id="vk6qnS6NGIDS7BdwkZoj-149" value="ssd based block storage" style="rounded=1;whiteSpace=wrap;html=1;dashed=1;align=center;verticalAlign=top;fillColor=#dae8fc;labelPosition=center;verticalLabelPosition=bottom;strokeColor=#6c8ebf;" vertex="1" parent="vk6qnS6NGIDS7BdwkZoj-1">
          <mxGeometry x="552" y="663" width="120" height="122" as="geometry" />
        </mxCell>
        <mxCell id="vk6qnS6NGIDS7BdwkZoj-7" value="" style="sketch=0;html=1;dashed=0;whitespace=wrap;fillColor=#2875E2;strokeColor=#ffffff;points=[[0.005,0.63,0],[0.1,0.2,0],[0.9,0.2,0],[0.5,0,0],[0.995,0.63,0],[0.72,0.99,0],[0.5,1,0],[0.28,0.99,0]];shape=mxgraph.kubernetes.icon;prIcon=node;align=left;verticalAlign=bottom;" vertex="1" parent="vk6qnS6NGIDS7BdwkZoj-1">
          <mxGeometry x="23" y="265" width="50" height="48" as="geometry" />
        </mxCell>
        <mxCell id="vk6qnS6NGIDS7BdwkZoj-55" value="ssd based block storage" style="rounded=1;whiteSpace=wrap;html=1;dashed=1;align=center;verticalAlign=top;fillColor=#dae8fc;labelPosition=center;verticalLabelPosition=bottom;strokeColor=#6c8ebf;" vertex="1" parent="vk6qnS6NGIDS7BdwkZoj-1">
          <mxGeometry x="69" y="663" width="120" height="122" as="geometry" />
        </mxCell>
        <mxCell id="vk6qnS6NGIDS7BdwkZoj-8" value="pv-s-2" style="sketch=0;html=1;dashed=0;whitespace=wrap;fillColor=#2875E2;strokeColor=#ffffff;points=[[0.005,0.63,0],[0.1,0.2,0],[0.9,0.2,0],[0.5,0,0],[0.995,0.63,0],[0.72,0.99,0],[0.5,1,0],[0.28,0.99,0]];shape=mxgraph.kubernetes.icon;prIcon=pv;align=center;verticalAlign=top;labelPosition=center;verticalLabelPosition=bottom;" vertex="1" parent="vk6qnS6NGIDS7BdwkZoj-1">
          <mxGeometry x="133" y="681" width="50" height="48" as="geometry" />
        </mxCell>
        <mxCell id="vk6qnS6NGIDS7BdwkZoj-57" style="edgeStyle=orthogonalEdgeStyle;rounded=0;orthogonalLoop=1;jettySize=auto;html=1;exitX=0.5;exitY=0;exitDx=0;exitDy=0;exitPerimeter=0;endArrow=none;endFill=0;strokeWidth=1;" edge="1" parent="vk6qnS6NGIDS7BdwkZoj-1" source="vk6qnS6NGIDS7BdwkZoj-9">
          <mxGeometry relative="1" as="geometry">
            <mxPoint x="364" y="585" as="targetPoint" />
          </mxGeometry>
        </mxCell>
        <mxCell id="vk6qnS6NGIDS7BdwkZoj-9" value="" style="sketch=0;html=1;dashed=0;whitespace=wrap;points=[[0.005,0.63,0],[0.1,0.2,0],[0.9,0.2,0],[0.5,0,0],[0.995,0.63,0],[0.72,0.99,0],[0.5,1,0],[0.28,0.99,0]];shape=mxgraph.kubernetes.icon;prIcon=pv;align=center;verticalAlign=top;labelPosition=center;verticalLabelPosition=bottom;" vertex="1" parent="vk6qnS6NGIDS7BdwkZoj-1">
          <mxGeometry x="405" y="681" width="50" height="48" as="geometry" />
        </mxCell>
        <mxCell id="vk6qnS6NGIDS7BdwkZoj-29" value="pv-s-1" style="sketch=0;html=1;dashed=0;whitespace=wrap;fillColor=#2875E2;strokeColor=#ffffff;points=[[0.005,0.63,0],[0.1,0.2,0],[0.9,0.2,0],[0.5,0,0],[0.995,0.63,0],[0.72,0.99,0],[0.5,1,0],[0.28,0.99,0]];shape=mxgraph.kubernetes.icon;prIcon=pv;align=center;verticalAlign=top;labelPosition=center;verticalLabelPosition=bottom;" vertex="1" parent="vk6qnS6NGIDS7BdwkZoj-1">
          <mxGeometry x="73" y="681" width="50" height="48" as="geometry" />
        </mxCell>
        <mxCell id="vk6qnS6NGIDS7BdwkZoj-56" value="ram disk based block storage" style="rounded=1;whiteSpace=wrap;html=1;dashed=1;align=center;verticalAlign=top;fillColor=#dae8fc;labelPosition=center;verticalLabelPosition=bottom;strokeColor=#6c8ebf;" vertex="1" parent="vk6qnS6NGIDS7BdwkZoj-1">
          <mxGeometry x="194" y="664" width="120" height="122" as="geometry" />
        </mxCell>
        <mxCell id="vk6qnS6NGIDS7BdwkZoj-17" value="pvc-1-ssd" style="sketch=0;html=1;dashed=0;whitespace=wrap;fillColor=#2875E2;strokeColor=#ffffff;points=[[0.005,0.63,0],[0.1,0.2,0],[0.9,0.2,0],[0.5,0,0],[0.995,0.63,0],[0.72,0.99,0],[0.5,1,0],[0.28,0.99,0]];shape=mxgraph.kubernetes.icon;prIcon=pvc;align=right;verticalAlign=middle;labelPosition=left;verticalLabelPosition=middle;" vertex="1" parent="vk6qnS6NGIDS7BdwkZoj-1">
          <mxGeometry x="104" y="615" width="50" height="48" as="geometry" />
        </mxCell>
        <mxCell id="vk6qnS6NGIDS7BdwkZoj-50" value="pvc-1-ram" style="sketch=0;html=1;dashed=0;whitespace=wrap;fillColor=#f8cecc;strokeColor=#b85450;points=[[0.005,0.63,0],[0.1,0.2,0],[0.9,0.2,0],[0.5,0,0],[0.995,0.63,0],[0.72,0.99,0],[0.5,1,0],[0.28,0.99,0]];shape=mxgraph.kubernetes.icon;prIcon=pvc;align=left;verticalAlign=middle;labelPosition=right;verticalLabelPosition=middle;" vertex="1" parent="vk6qnS6NGIDS7BdwkZoj-1">
          <mxGeometry x="225" y="615" width="50" height="48" as="geometry" />
        </mxCell>
        <mxCell id="vk6qnS6NGIDS7BdwkZoj-51" value="pv-r-1" style="sketch=0;html=1;dashed=0;whitespace=wrap;fillColor=#f8cecc;strokeColor=#b85450;points=[[0.005,0.63,0],[0.1,0.2,0],[0.9,0.2,0],[0.5,0,0],[0.995,0.63,0],[0.72,0.99,0],[0.5,1,0],[0.28,0.99,0]];shape=mxgraph.kubernetes.icon;prIcon=pv;align=center;verticalAlign=top;labelPosition=center;verticalLabelPosition=bottom;" vertex="1" parent="vk6qnS6NGIDS7BdwkZoj-1">
          <mxGeometry x="194" y="681" width="50" height="48" as="geometry" />
        </mxCell>
        <mxCell id="vk6qnS6NGIDS7BdwkZoj-49" value="pv-r-2" style="sketch=0;html=1;dashed=0;whitespace=wrap;fillColor=#f8cecc;strokeColor=#b85450;points=[[0.005,0.63,0],[0.1,0.2,0],[0.9,0.2,0],[0.5,0,0],[0.995,0.63,0],[0.72,0.99,0],[0.5,1,0],[0.28,0.99,0]];shape=mxgraph.kubernetes.icon;prIcon=pv;align=center;verticalAlign=top;labelPosition=center;verticalLabelPosition=bottom;" vertex="1" parent="vk6qnS6NGIDS7BdwkZoj-1">
          <mxGeometry x="254" y="681" width="50" height="48" as="geometry" />
        </mxCell>
        <mxCell id="vk6qnS6NGIDS7BdwkZoj-144" value="pv-s-4" style="sketch=0;html=1;dashed=0;whitespace=wrap;fillColor=#2875E2;strokeColor=#ffffff;points=[[0.005,0.63,0],[0.1,0.2,0],[0.9,0.2,0],[0.5,0,0],[0.995,0.63,0],[0.72,0.99,0],[0.5,1,0],[0.28,0.99,0]];shape=mxgraph.kubernetes.icon;prIcon=pv;align=center;verticalAlign=top;labelPosition=center;verticalLabelPosition=bottom;" vertex="1" parent="vk6qnS6NGIDS7BdwkZoj-1">
          <mxGeometry x="616" y="681" width="50" height="48" as="geometry" />
        </mxCell>
        <mxCell id="vk6qnS6NGIDS7BdwkZoj-147" value="pv-s-3" style="sketch=0;html=1;dashed=0;whitespace=wrap;fillColor=#2875E2;strokeColor=#ffffff;points=[[0.005,0.63,0],[0.1,0.2,0],[0.9,0.2,0],[0.5,0,0],[0.995,0.63,0],[0.72,0.99,0],[0.5,1,0],[0.28,0.99,0]];shape=mxgraph.kubernetes.icon;prIcon=pv;align=center;verticalAlign=top;labelPosition=center;verticalLabelPosition=bottom;" vertex="1" parent="vk6qnS6NGIDS7BdwkZoj-1">
          <mxGeometry x="556" y="681" width="50" height="48" as="geometry" />
        </mxCell>
        <mxCell id="vk6qnS6NGIDS7BdwkZoj-150" value="pvc-2-ssd" style="sketch=0;html=1;dashed=0;whitespace=wrap;fillColor=#2875E2;strokeColor=#ffffff;points=[[0.005,0.63,0],[0.1,0.2,0],[0.9,0.2,0],[0.5,0,0],[0.995,0.63,0],[0.72,0.99,0],[0.5,1,0],[0.28,0.99,0]];shape=mxgraph.kubernetes.icon;prIcon=pvc;align=right;verticalAlign=middle;labelPosition=left;verticalLabelPosition=middle;" vertex="1" parent="vk6qnS6NGIDS7BdwkZoj-1">
          <mxGeometry x="587" y="615" width="50" height="48" as="geometry" />
        </mxCell>
        <mxCell id="vk6qnS6NGIDS7BdwkZoj-151" value="pvc-2-ram" style="sketch=0;html=1;dashed=0;whitespace=wrap;fillColor=#f8cecc;strokeColor=#b85450;points=[[0.005,0.63,0],[0.1,0.2,0],[0.9,0.2,0],[0.5,0,0],[0.995,0.63,0],[0.72,0.99,0],[0.5,1,0],[0.28,0.99,0]];shape=mxgraph.kubernetes.icon;prIcon=pvc;align=left;verticalAlign=middle;labelPosition=right;verticalLabelPosition=middle;" vertex="1" parent="vk6qnS6NGIDS7BdwkZoj-1">
          <mxGeometry x="708" y="615" width="50" height="48" as="geometry" />
        </mxCell>
        <mxCell id="vk6qnS6NGIDS7BdwkZoj-152" value="pv-r-3" style="sketch=0;html=1;dashed=0;whitespace=wrap;fillColor=#f8cecc;strokeColor=#b85450;points=[[0.005,0.63,0],[0.1,0.2,0],[0.9,0.2,0],[0.5,0,0],[0.995,0.63,0],[0.72,0.99,0],[0.5,1,0],[0.28,0.99,0]];shape=mxgraph.kubernetes.icon;prIcon=pv;align=center;verticalAlign=top;labelPosition=center;verticalLabelPosition=bottom;" vertex="1" parent="vk6qnS6NGIDS7BdwkZoj-1">
          <mxGeometry x="677" y="681" width="50" height="48" as="geometry" />
        </mxCell>
        <mxCell id="vk6qnS6NGIDS7BdwkZoj-153" value="pv-r-4" style="sketch=0;html=1;dashed=0;whitespace=wrap;fillColor=#f8cecc;strokeColor=#b85450;points=[[0.005,0.63,0],[0.1,0.2,0],[0.9,0.2,0],[0.5,0,0],[0.995,0.63,0],[0.72,0.99,0],[0.5,1,0],[0.28,0.99,0]];shape=mxgraph.kubernetes.icon;prIcon=pv;align=center;verticalAlign=top;labelPosition=center;verticalLabelPosition=bottom;" vertex="1" parent="vk6qnS6NGIDS7BdwkZoj-1">
          <mxGeometry x="737" y="681" width="50" height="48" as="geometry" />
        </mxCell>
        <mxCell id="vk6qnS6NGIDS7BdwkZoj-154" value="" style="endArrow=classic;html=1;strokeWidth=1;exitX=0.712;exitY=1;exitDx=0;exitDy=0;exitPerimeter=0;endFill=1;" edge="1" parent="vk6qnS6NGIDS7BdwkZoj-1" source="vk6qnS6NGIDS7BdwkZoj-41">
          <mxGeometry relative="1" as="geometry">
            <mxPoint x="598.96" y="218" as="sourcePoint" />
            <mxPoint x="598" y="415" as="targetPoint" />
          </mxGeometry>
        </mxCell>
        <mxCell id="vk6qnS6NGIDS7BdwkZoj-155" value="80" style="edgeLabel;resizable=0;html=1;align=right;verticalAlign=bottom;" connectable="0" vertex="1" parent="vk6qnS6NGIDS7BdwkZoj-154">
          <mxGeometry x="1" relative="1" as="geometry" />
        </mxCell>
        <mxCell id="vk6qnS6NGIDS7BdwkZoj-156" value="10082" style="edgeLabel;html=1;align=center;verticalAlign=middle;resizable=0;points=[];" vertex="1" connectable="0" parent="vk6qnS6NGIDS7BdwkZoj-154">
          <mxGeometry x="-0.868" y="-3" relative="1" as="geometry">
            <mxPoint as="offset" />
          </mxGeometry>
        </mxCell>
        <mxCell id="vk6qnS6NGIDS7BdwkZoj-157" value="NodePort" style="edgeLabel;html=1;align=center;verticalAlign=middle;resizable=0;points=[];" vertex="1" connectable="0" parent="vk6qnS6NGIDS7BdwkZoj-154">
          <mxGeometry x="-0.0152" relative="1" as="geometry">
            <mxPoint as="offset" />
          </mxGeometry>
        </mxCell>
        <mxCell id="vk6qnS6NGIDS7BdwkZoj-158" style="edgeStyle=orthogonalEdgeStyle;rounded=0;orthogonalLoop=1;jettySize=auto;html=1;endArrow=none;endFill=0;strokeWidth=1;" edge="1" parent="vk6qnS6NGIDS7BdwkZoj-1" target="vk6qnS6NGIDS7BdwkZoj-150">
          <mxGeometry relative="1" as="geometry">
            <mxPoint x="612" y="585" as="sourcePoint" />
          </mxGeometry>
        </mxCell>
        <mxCell id="vk6qnS6NGIDS7BdwkZoj-170" style="edgeStyle=orthogonalEdgeStyle;rounded=0;sketch=0;orthogonalLoop=1;jettySize=auto;html=1;entryX=0.5;entryY=0;entryDx=0;entryDy=0;entryPerimeter=0;endArrow=none;endFill=0;" edge="1" parent="vk6qnS6NGIDS7BdwkZoj-1" target="vk6qnS6NGIDS7BdwkZoj-9">
          <mxGeometry relative="1" as="geometry">
            <mxPoint x="514" y="585" as="sourcePoint" />
            <Array as="points">
              <mxPoint x="514" y="585" />
              <mxPoint x="514" y="633" />
              <mxPoint x="430" y="633" />
            </Array>
          </mxGeometry>
        </mxCell>
        <mxCell id="vk6qnS6NGIDS7BdwkZoj-171" value="config files, logs" style="edgeLabel;html=1;align=center;verticalAlign=middle;resizable=0;points=[];" vertex="1" connectable="0" parent="vk6qnS6NGIDS7BdwkZoj-170">
          <mxGeometry x="0.8574" relative="1" as="geometry">
            <mxPoint y="-43" as="offset" />
          </mxGeometry>
        </mxCell>
        <mxCell id="vk6qnS6NGIDS7BdwkZoj-159" value="pod-2" style="swimlane;horizontal=0;dashed=1;align=left;verticalAlign=top;startSize=50;swimlaneFillColor=none;fillColor=#FFE599;strokeColor=#D6B656;" vertex="1" parent="vk6qnS6NGIDS7BdwkZoj-1">
          <mxGeometry x="454" y="415" width="305" height="170" as="geometry" />
        </mxCell>
        <mxCell id="vk6qnS6NGIDS7BdwkZoj-160" value="" style="sketch=0;html=1;dashed=0;whitespace=wrap;fillColor=#2875E2;strokeColor=#ffffff;points=[[0.005,0.63,0],[0.1,0.2,0],[0.9,0.2,0],[0.5,0,0],[0.995,0.63,0],[0.72,0.99,0],[0.5,1,0],[0.28,0.99,0]];shape=mxgraph.kubernetes.icon;prIcon=pod;align=left;verticalAlign=top;" vertex="1" parent="vk6qnS6NGIDS7BdwkZoj-159">
          <mxGeometry width="50" height="48" as="geometry" />
        </mxCell>
        <mxCell id="vk6qnS6NGIDS7BdwkZoj-161" value="dsvc-2 &amp;amp; svc-sports&lt;br&gt;cache container&lt;br&gt;" style="rounded=1;whiteSpace=wrap;html=1;dashed=1;align=center;verticalAlign=top;fillColor=#d5e8d4;strokeColor=#82b366;" vertex="1" parent="vk6qnS6NGIDS7BdwkZoj-159">
          <mxGeometry x="80" y="10" width="150" height="140" as="geometry" />
        </mxCell>
        <mxCell id="vk6qnS6NGIDS7BdwkZoj-162" value="" style="aspect=fixed;perimeter=ellipsePerimeter;html=1;align=center;fontSize=12;verticalAlign=top;fontColor=#364149;shadow=0;dashed=0;image;image=img/lib/cumulus/container.svg;" vertex="1" parent="vk6qnS6NGIDS7BdwkZoj-159">
          <mxGeometry x="130" y="100" width="50" height="44.44" as="geometry" />
        </mxCell>
        <mxCell id="vk6qnS6NGIDS7BdwkZoj-163" style="edgeStyle=orthogonalEdgeStyle;rounded=0;orthogonalLoop=1;jettySize=auto;html=1;exitX=0.5;exitY=1;exitDx=0;exitDy=0;exitPerimeter=0;entryX=0.5;entryY=0;entryDx=0;entryDy=0;entryPerimeter=0;endArrow=none;endFill=0;strokeWidth=1;" edge="1" parent="vk6qnS6NGIDS7BdwkZoj-1" source="vk6qnS6NGIDS7BdwkZoj-150" target="vk6qnS6NGIDS7BdwkZoj-147">
          <mxGeometry relative="1" as="geometry">
            <Array as="points">
              <mxPoint x="612" y="675" />
            </Array>
          </mxGeometry>
        </mxCell>
        <mxCell id="vk6qnS6NGIDS7BdwkZoj-164" style="edgeStyle=orthogonalEdgeStyle;rounded=0;orthogonalLoop=1;jettySize=auto;html=1;exitX=0.5;exitY=1;exitDx=0;exitDy=0;exitPerimeter=0;entryX=0.5;entryY=0;entryDx=0;entryDy=0;entryPerimeter=0;endArrow=none;endFill=0;strokeWidth=1;" edge="1" parent="vk6qnS6NGIDS7BdwkZoj-1" source="vk6qnS6NGIDS7BdwkZoj-150" target="vk6qnS6NGIDS7BdwkZoj-144">
          <mxGeometry relative="1" as="geometry">
            <Array as="points">
              <mxPoint x="612" y="675" />
              <mxPoint x="641" y="675" />
            </Array>
          </mxGeometry>
        </mxCell>
        <mxCell id="vk6qnS6NGIDS7BdwkZoj-165" style="edgeStyle=orthogonalEdgeStyle;rounded=0;orthogonalLoop=1;jettySize=auto;html=1;endArrow=none;endFill=0;strokeWidth=1;exitX=0.75;exitY=1;exitDx=0;exitDy=0;" edge="1" parent="vk6qnS6NGIDS7BdwkZoj-1" target="vk6qnS6NGIDS7BdwkZoj-151" source="vk6qnS6NGIDS7BdwkZoj-159">
          <mxGeometry relative="1" as="geometry">
            <mxPoint x="684" y="595" as="sourcePoint" />
          </mxGeometry>
        </mxCell>
        <mxCell id="vk6qnS6NGIDS7BdwkZoj-166" style="edgeStyle=orthogonalEdgeStyle;rounded=0;orthogonalLoop=1;jettySize=auto;html=1;exitX=0.5;exitY=1;exitDx=0;exitDy=0;exitPerimeter=0;entryX=0.5;entryY=0;entryDx=0;entryDy=0;entryPerimeter=0;endArrow=none;endFill=0;strokeWidth=1;" edge="1" parent="vk6qnS6NGIDS7BdwkZoj-1" source="vk6qnS6NGIDS7BdwkZoj-151" target="vk6qnS6NGIDS7BdwkZoj-152">
          <mxGeometry relative="1" as="geometry">
            <Array as="points">
              <mxPoint x="733" y="675" />
            </Array>
          </mxGeometry>
        </mxCell>
        <mxCell id="vk6qnS6NGIDS7BdwkZoj-167" style="edgeStyle=orthogonalEdgeStyle;rounded=0;orthogonalLoop=1;jettySize=auto;html=1;exitX=0.5;exitY=1;exitDx=0;exitDy=0;exitPerimeter=0;entryX=0.5;entryY=0;entryDx=0;entryDy=0;entryPerimeter=0;endArrow=none;endFill=0;strokeWidth=1;" edge="1" parent="vk6qnS6NGIDS7BdwkZoj-1" source="vk6qnS6NGIDS7BdwkZoj-151" target="vk6qnS6NGIDS7BdwkZoj-153">
          <mxGeometry relative="1" as="geometry">
            <Array as="points">
              <mxPoint x="733" y="675" />
              <mxPoint x="762" y="675" />
            </Array>
          </mxGeometry>
        </mxCell>
        <mxCell id="vk6qnS6NGIDS7BdwkZoj-180" style="edgeStyle=orthogonalEdgeStyle;rounded=0;sketch=0;orthogonalLoop=1;jettySize=auto;html=1;endArrow=none;endFill=0;exitX=0.123;exitY=0.004;exitDx=0;exitDy=0;exitPerimeter=0;" edge="1" parent="vk6qnS6NGIDS7BdwkZoj-1" source="vk6qnS6NGIDS7BdwkZoj-175">
          <mxGeometry relative="1" as="geometry">
            <mxPoint x="352" y="155" as="sourcePoint" />
            <mxPoint x="353" y="75" as="targetPoint" />
          </mxGeometry>
        </mxCell>
        <mxCell id="vk6qnS6NGIDS7BdwkZoj-173" value="pod-lb" style="swimlane;horizontal=0;dashed=1;align=left;verticalAlign=top;startSize=50;fillColor=#FFE599;strokeColor=#d6b656;" vertex="1" parent="vk6qnS6NGIDS7BdwkZoj-1">
          <mxGeometry x="254" y="152" width="305" height="228" as="geometry" />
        </mxCell>
        <mxCell id="vk6qnS6NGIDS7BdwkZoj-174" value="" style="sketch=0;html=1;dashed=0;whitespace=wrap;fillColor=#2875E2;strokeColor=#ffffff;points=[[0.005,0.63,0],[0.1,0.2,0],[0.9,0.2,0],[0.5,0,0],[0.995,0.63,0],[0.72,0.99,0],[0.5,1,0],[0.28,0.99,0]];shape=mxgraph.kubernetes.icon;prIcon=pod;align=left;verticalAlign=top;" vertex="1" parent="vk6qnS6NGIDS7BdwkZoj-173">
          <mxGeometry width="50" height="48" as="geometry" />
        </mxCell>
        <mxCell id="vk6qnS6NGIDS7BdwkZoj-175" value="&lt;pre&gt;&lt;font face=&quot;Helvetica&quot;&gt;ingress lb container:&lt;br&gt;host-news-&amp;gt;svc-news&lt;br&gt;host-sports-&amp;gt;svc-sports&lt;/font&gt;&lt;/pre&gt;" style="rounded=1;whiteSpace=wrap;html=1;dashed=1;align=center;verticalAlign=top;fillColor=#d5e8d4;strokeColor=#82b366;" vertex="1" parent="vk6qnS6NGIDS7BdwkZoj-173">
          <mxGeometry x="80" y="10" width="150" height="140" as="geometry" />
        </mxCell>
        <mxCell id="vk6qnS6NGIDS7BdwkZoj-177" value="" style="shape=image;html=1;verticalAlign=top;verticalLabelPosition=bottom;labelBackgroundColor=#ffffff;imageAspect=0;aspect=fixed;image=https://cdn4.iconfinder.com/data/icons/logos-brands-5/24/nginx-128.png;rounded=0;sketch=0;imageBackground=#CCFF99;" vertex="1" parent="vk6qnS6NGIDS7BdwkZoj-173">
          <mxGeometry x="131" y="100" width="38" height="38" as="geometry" />
        </mxCell>
        <mxCell id="vk6qnS6NGIDS7BdwkZoj-179" value="http://host-news" style="text;html=1;align=center;verticalAlign=middle;resizable=0;points=[];autosize=1;strokeColor=none;fillColor=none;" vertex="1" parent="vk6qnS6NGIDS7BdwkZoj-1">
          <mxGeometry x="305" y="105" width="100" height="20" as="geometry" />
        </mxCell>
        <mxCell id="vk6qnS6NGIDS7BdwkZoj-182" value="http://host-sports" style="text;html=1;align=center;verticalAlign=middle;resizable=0;points=[];autosize=1;strokeColor=none;fillColor=none;" vertex="1" parent="vk6qnS6NGIDS7BdwkZoj-1">
          <mxGeometry x="405" y="105.49000000000001" width="100" height="20" as="geometry" />
        </mxCell>
        <mxCell id="vk6qnS6NGIDS7BdwkZoj-187" value="svc-sports" style="edgeStyle=orthogonalEdgeStyle;rounded=0;sketch=0;orthogonalLoop=1;jettySize=auto;html=1;endArrow=none;endFill=0;exitX=0.75;exitY=1;exitDx=0;exitDy=0;entryX=0;entryY=0.5;entryDx=0;entryDy=0;" edge="1" parent="vk6qnS6NGIDS7BdwkZoj-1" source="vk6qnS6NGIDS7BdwkZoj-175" target="vk6qnS6NGIDS7BdwkZoj-161">
          <mxGeometry x="0.726" y="8" relative="1" as="geometry">
            <mxPoint x="533" y="505" as="targetPoint" />
            <mxPoint x="514" y="380" as="sourcePoint" />
            <Array as="points">
              <mxPoint x="447" y="495" />
            </Array>
            <mxPoint as="offset" />
          </mxGeometry>
        </mxCell>
        <mxCell id="vk6qnS6NGIDS7BdwkZoj-192" style="edgeStyle=orthogonalEdgeStyle;rounded=0;sketch=0;orthogonalLoop=1;jettySize=auto;html=1;exitX=0.507;exitY=0.989;exitDx=0;exitDy=0;entryX=0.803;entryY=0;entryDx=0;entryDy=0;entryPerimeter=0;endArrow=none;endFill=0;exitPerimeter=0;" edge="1" parent="vk6qnS6NGIDS7BdwkZoj-1" source="vk6qnS6NGIDS7BdwkZoj-41" target="vk6qnS6NGIDS7BdwkZoj-175">
          <mxGeometry relative="1" as="geometry" />
        </mxCell>
        <mxCell id="vk6qnS6NGIDS7BdwkZoj-183" value="svc-news" style="edgeStyle=orthogonalEdgeStyle;rounded=0;sketch=0;orthogonalLoop=1;jettySize=auto;html=1;endArrow=none;endFill=0;entryX=1;entryY=0.5;entryDx=0;entryDy=0;" edge="1" parent="vk6qnS6NGIDS7BdwkZoj-1" target="vk6qnS6NGIDS7BdwkZoj-25">
          <mxGeometry x="0.7358" y="-10" relative="1" as="geometry">
            <mxPoint x="330.33333333333326" y="415" as="targetPoint" />
            <mxPoint x="374" y="305" as="sourcePoint" />
            <Array as="points">
              <mxPoint x="374" y="495" />
            </Array>
            <mxPoint as="offset" />
          </mxGeometry>
        </mxCell>
        <mxCell id="vk6qnS6NGIDS7BdwkZoj-197" value="&lt;h1&gt;Service Example&lt;/h1&gt;&lt;div&gt;&lt;ul&gt;&lt;li&gt;eth-bond-ip:10.10.10.100&lt;/li&gt;&lt;li&gt;domain names (provided by Traffic&#39;s router&#39;s DNS service)&lt;/li&gt;&lt;ul&gt;&lt;li&gt;dsvc-1.edge.streaming.io: 10.10.10.100&lt;/li&gt;&lt;li&gt;dsvc-2.edge.streaming.io: 10.10.10.100&lt;/li&gt;&lt;li&gt;host-news.edge.streaming.io: 10.10.10.100&lt;/li&gt;&lt;li&gt;host-sports.edge.streaming.io: 10.10.10.100&lt;/li&gt;&lt;li&gt;&lt;br&gt;&lt;/li&gt;&lt;/ul&gt;&lt;/ul&gt;&lt;/div&gt;" style="text;html=1;strokeColor=none;fillColor=none;spacing=5;spacingTop=-20;whiteSpace=wrap;overflow=hidden;rounded=0;glass=0;labelBackgroundColor=none;sketch=0;fontColor=none;align=left;verticalAlign=top;" vertex="1" parent="vk6qnS6NGIDS7BdwkZoj-1">
          <mxGeometry x="708" y="125" width="342" height="274.51" as="geometry" />
        </mxCell>
        <mxCell id="vk6qnS6NGIDS7BdwkZoj-198" value="Text" style="text;html=1;strokeColor=none;fillColor=none;align=center;verticalAlign=middle;whiteSpace=wrap;rounded=0;glass=0;labelBackgroundColor=none;sketch=0;fontColor=none;" vertex="1" parent="vk6qnS6NGIDS7BdwkZoj-1">
          <mxGeometry x="560" y="470" width="40" height="20" as="geometry" />
        </mxCell>
        <mxCell id="vk6qnS6NGIDS7BdwkZoj-30" value="network" parent="vk6qnS6NGIDS7BdwkZoj-0" />
        <mxCell id="vk6qnS6NGIDS7BdwkZoj-41" value="ethernet bond" style="rounded=0;whiteSpace=wrap;html=1;dashed=1;align=left;verticalAlign=top;horizontal=0;fillColor=#dae8fc;strokeColor=#6c8ebf;" vertex="1" parent="vk6qnS6NGIDS7BdwkZoj-30">
          <mxGeometry x="104" y="16" width="690" height="60" as="geometry" />
        </mxCell>
        <mxCell id="vk6qnS6NGIDS7BdwkZoj-32" value="" style="sketch=0;pointerEvents=1;shadow=0;dashed=0;html=1;strokeColor=none;fillColor=#434445;aspect=fixed;labelPosition=center;verticalLabelPosition=bottom;verticalAlign=top;align=center;outlineConnect=0;shape=mxgraph.vvd.ethernet_port;" vertex="1" parent="vk6qnS6NGIDS7BdwkZoj-30">
          <mxGeometry x="224" y="16" width="50" height="50" as="geometry" />
        </mxCell>
        <mxCell id="vk6qnS6NGIDS7BdwkZoj-33" value="" style="sketch=0;pointerEvents=1;shadow=0;dashed=0;html=1;strokeColor=none;fillColor=#434445;aspect=fixed;labelPosition=center;verticalLabelPosition=bottom;verticalAlign=top;align=center;outlineConnect=0;shape=mxgraph.vvd.ethernet_port;" vertex="1" parent="vk6qnS6NGIDS7BdwkZoj-30">
          <mxGeometry x="304" y="16" width="50" height="50" as="geometry" />
        </mxCell>
        <mxCell id="vk6qnS6NGIDS7BdwkZoj-34" value="" style="sketch=0;pointerEvents=1;shadow=0;dashed=0;html=1;strokeColor=none;fillColor=#434445;aspect=fixed;labelPosition=center;verticalLabelPosition=bottom;verticalAlign=top;align=center;outlineConnect=0;shape=mxgraph.vvd.ethernet_port;" vertex="1" parent="vk6qnS6NGIDS7BdwkZoj-30">
          <mxGeometry x="384" y="16" width="50" height="50" as="geometry" />
        </mxCell>
        <mxCell id="vk6qnS6NGIDS7BdwkZoj-35" value="" style="sketch=0;pointerEvents=1;shadow=0;dashed=0;html=1;strokeColor=none;fillColor=#434445;aspect=fixed;labelPosition=center;verticalLabelPosition=bottom;verticalAlign=top;align=center;outlineConnect=0;shape=mxgraph.vvd.ethernet_port;" vertex="1" parent="vk6qnS6NGIDS7BdwkZoj-30">
          <mxGeometry x="464" y="16" width="50" height="50" as="geometry" />
        </mxCell>
        <mxCell id="vk6qnS6NGIDS7BdwkZoj-36" value="" style="sketch=0;pointerEvents=1;shadow=0;dashed=0;html=1;strokeColor=none;fillColor=#434445;aspect=fixed;labelPosition=center;verticalLabelPosition=bottom;verticalAlign=top;align=center;outlineConnect=0;shape=mxgraph.vvd.ethernet_port;" vertex="1" parent="vk6qnS6NGIDS7BdwkZoj-30">
          <mxGeometry x="544" y="16" width="50" height="50" as="geometry" />
        </mxCell>
        <mxCell id="vk6qnS6NGIDS7BdwkZoj-37" value="" style="sketch=0;pointerEvents=1;shadow=0;dashed=0;html=1;strokeColor=none;fillColor=#434445;aspect=fixed;labelPosition=center;verticalLabelPosition=bottom;verticalAlign=top;align=center;outlineConnect=0;shape=mxgraph.vvd.ethernet_port;" vertex="1" parent="vk6qnS6NGIDS7BdwkZoj-30">
          <mxGeometry x="624" y="16" width="50" height="50" as="geometry" />
        </mxCell>
        <mxCell id="vk6qnS6NGIDS7BdwkZoj-38" value="" style="sketch=0;pointerEvents=1;shadow=0;dashed=0;html=1;strokeColor=none;fillColor=#434445;aspect=fixed;labelPosition=center;verticalLabelPosition=bottom;verticalAlign=top;align=center;outlineConnect=0;shape=mxgraph.vvd.ethernet_port;" vertex="1" parent="vk6qnS6NGIDS7BdwkZoj-30">
          <mxGeometry x="704" y="16" width="50" height="50" as="geometry" />
        </mxCell>
        <mxCell id="vk6qnS6NGIDS7BdwkZoj-39" value="" style="sketch=0;pointerEvents=1;shadow=0;dashed=0;html=1;strokeColor=none;fillColor=#434445;aspect=fixed;labelPosition=center;verticalLabelPosition=bottom;verticalAlign=top;align=center;outlineConnect=0;shape=mxgraph.vvd.ethernet_port;" vertex="1" parent="vk6qnS6NGIDS7BdwkZoj-30">
          <mxGeometry x="144" y="16" width="50" height="50" as="geometry" />
        </mxCell>
        <mxCell id="vk6qnS6NGIDS7BdwkZoj-66" value="" style="endArrow=classic;html=1;strokeWidth=1;exitX=0.147;exitY=1.05;exitDx=0;exitDy=0;exitPerimeter=0;endFill=1;" edge="1" parent="vk6qnS6NGIDS7BdwkZoj-30" source="vk6qnS6NGIDS7BdwkZoj-41">
          <mxGeometry relative="1" as="geometry">
            <mxPoint x="264" y="285" as="sourcePoint" />
            <mxPoint x="214" y="415" as="targetPoint" />
          </mxGeometry>
        </mxCell>
        <mxCell id="vk6qnS6NGIDS7BdwkZoj-69" value="80" style="edgeLabel;resizable=0;html=1;align=right;verticalAlign=bottom;" connectable="0" vertex="1" parent="vk6qnS6NGIDS7BdwkZoj-66">
          <mxGeometry x="1" relative="1" as="geometry" />
        </mxCell>
        <mxCell id="vk6qnS6NGIDS7BdwkZoj-70" value="10081" style="edgeLabel;html=1;align=center;verticalAlign=middle;resizable=0;points=[];" vertex="1" connectable="0" parent="vk6qnS6NGIDS7BdwkZoj-66">
          <mxGeometry x="-0.868" y="-3" relative="1" as="geometry">
            <mxPoint as="offset" />
          </mxGeometry>
        </mxCell>
        <mxCell id="vk6qnS6NGIDS7BdwkZoj-71" value="NodePort" style="edgeLabel;html=1;align=center;verticalAlign=middle;resizable=0;points=[];" vertex="1" connectable="0" parent="vk6qnS6NGIDS7BdwkZoj-66">
          <mxGeometry x="-0.0152" relative="1" as="geometry">
            <mxPoint as="offset" />
          </mxGeometry>
        </mxCell>
        <mxCell id="vk6qnS6NGIDS7BdwkZoj-42" value="containers" parent="vk6qnS6NGIDS7BdwkZoj-0" />
        <mxCell id="vk6qnS6NGIDS7BdwkZoj-4" value="pod-1" style="swimlane;horizontal=0;dashed=1;align=left;verticalAlign=top;startSize=50;fillColor=#FFE599;strokeColor=#D6B656;glass=0;sketch=0;swimlaneFillColor=none;rounded=0;" vertex="1" parent="vk6qnS6NGIDS7BdwkZoj-42">
          <mxGeometry x="69" y="415" width="315" height="170" as="geometry" />
        </mxCell>
        <mxCell id="vk6qnS6NGIDS7BdwkZoj-5" value="" style="sketch=0;html=1;dashed=0;whitespace=wrap;fillColor=#2875E2;strokeColor=#ffffff;points=[[0.005,0.63,0],[0.1,0.2,0],[0.9,0.2,0],[0.5,0,0],[0.995,0.63,0],[0.72,0.99,0],[0.5,1,0],[0.28,0.99,0]];shape=mxgraph.kubernetes.icon;prIcon=pod;align=left;verticalAlign=top;" vertex="1" parent="vk6qnS6NGIDS7BdwkZoj-4">
          <mxGeometry width="50" height="48" as="geometry" />
        </mxCell>
        <mxCell id="vk6qnS6NGIDS7BdwkZoj-25" value="dsvc-1 &amp;amp; svc-news &lt;br&gt;cache container" style="rounded=1;whiteSpace=wrap;html=1;dashed=1;align=center;verticalAlign=top;fillColor=#d5e8d4;strokeColor=#82b366;" vertex="1" parent="vk6qnS6NGIDS7BdwkZoj-4">
          <mxGeometry x="80" y="10" width="150" height="140" as="geometry" />
        </mxCell>
        <mxCell id="vk6qnS6NGIDS7BdwkZoj-24" value="" style="aspect=fixed;perimeter=ellipsePerimeter;html=1;align=center;fontSize=12;verticalAlign=top;fontColor=#364149;shadow=0;dashed=0;image;image=img/lib/cumulus/container.svg;" vertex="1" parent="vk6qnS6NGIDS7BdwkZoj-4">
          <mxGeometry x="125" y="100" width="50" height="44.44" as="geometry" />
        </mxCell>
        <mxCell id="vk6qnS6NGIDS7BdwkZoj-48" style="edgeStyle=orthogonalEdgeStyle;rounded=0;orthogonalLoop=1;jettySize=auto;html=1;endArrow=none;endFill=0;strokeWidth=1;" edge="1" parent="vk6qnS6NGIDS7BdwkZoj-42" target="vk6qnS6NGIDS7BdwkZoj-17">
          <mxGeometry relative="1" as="geometry">
            <mxPoint x="174" y="585" as="sourcePoint" />
            <Array as="points">
              <mxPoint x="174" y="585" />
              <mxPoint x="174" y="605" />
              <mxPoint x="129" y="605" />
            </Array>
          </mxGeometry>
        </mxCell>
        <mxCell id="vk6qnS6NGIDS7BdwkZoj-46" style="edgeStyle=orthogonalEdgeStyle;rounded=0;orthogonalLoop=1;jettySize=auto;html=1;exitX=0.5;exitY=1;exitDx=0;exitDy=0;exitPerimeter=0;entryX=0.5;entryY=0;entryDx=0;entryDy=0;entryPerimeter=0;endArrow=none;endFill=0;strokeWidth=1;" edge="1" parent="vk6qnS6NGIDS7BdwkZoj-42" source="vk6qnS6NGIDS7BdwkZoj-17" target="vk6qnS6NGIDS7BdwkZoj-29">
          <mxGeometry relative="1" as="geometry">
            <Array as="points">
              <mxPoint x="129" y="675" />
            </Array>
          </mxGeometry>
        </mxCell>
        <mxCell id="vk6qnS6NGIDS7BdwkZoj-47" style="edgeStyle=orthogonalEdgeStyle;rounded=0;orthogonalLoop=1;jettySize=auto;html=1;exitX=0.5;exitY=1;exitDx=0;exitDy=0;exitPerimeter=0;entryX=0.5;entryY=0;entryDx=0;entryDy=0;entryPerimeter=0;endArrow=none;endFill=0;strokeWidth=1;" edge="1" parent="vk6qnS6NGIDS7BdwkZoj-42" source="vk6qnS6NGIDS7BdwkZoj-17" target="vk6qnS6NGIDS7BdwkZoj-8">
          <mxGeometry relative="1" as="geometry">
            <Array as="points">
              <mxPoint x="129" y="675" />
              <mxPoint x="158" y="675" />
            </Array>
          </mxGeometry>
        </mxCell>
        <mxCell id="vk6qnS6NGIDS7BdwkZoj-52" style="edgeStyle=orthogonalEdgeStyle;rounded=0;orthogonalLoop=1;jettySize=auto;html=1;exitX=0.25;exitY=1;exitDx=0;exitDy=0;endArrow=none;endFill=0;strokeWidth=1;" edge="1" parent="vk6qnS6NGIDS7BdwkZoj-42" target="vk6qnS6NGIDS7BdwkZoj-50">
          <mxGeometry relative="1" as="geometry">
            <mxPoint x="250" y="585" as="sourcePoint" />
          </mxGeometry>
        </mxCell>
        <mxCell id="vk6qnS6NGIDS7BdwkZoj-53" style="edgeStyle=orthogonalEdgeStyle;rounded=0;orthogonalLoop=1;jettySize=auto;html=1;exitX=0.5;exitY=1;exitDx=0;exitDy=0;exitPerimeter=0;entryX=0.5;entryY=0;entryDx=0;entryDy=0;entryPerimeter=0;endArrow=none;endFill=0;strokeWidth=1;" edge="1" parent="vk6qnS6NGIDS7BdwkZoj-42" source="vk6qnS6NGIDS7BdwkZoj-50" target="vk6qnS6NGIDS7BdwkZoj-51">
          <mxGeometry relative="1" as="geometry">
            <Array as="points">
              <mxPoint x="250" y="675" />
            </Array>
          </mxGeometry>
        </mxCell>
        <mxCell id="vk6qnS6NGIDS7BdwkZoj-54" style="edgeStyle=orthogonalEdgeStyle;rounded=0;orthogonalLoop=1;jettySize=auto;html=1;exitX=0.5;exitY=1;exitDx=0;exitDy=0;exitPerimeter=0;entryX=0.5;entryY=0;entryDx=0;entryDy=0;entryPerimeter=0;endArrow=none;endFill=0;strokeWidth=1;" edge="1" parent="vk6qnS6NGIDS7BdwkZoj-42" source="vk6qnS6NGIDS7BdwkZoj-50" target="vk6qnS6NGIDS7BdwkZoj-49">
          <mxGeometry relative="1" as="geometry">
            <Array as="points">
              <mxPoint x="250" y="675" />
              <mxPoint x="279" y="675" />
            </Array>
          </mxGeometry>
        </mxCell>
      </root>
    </mxGraphModel>
  </diagram>
</mxfile>
